# xmcd
#
# Track frame offsets:
#	150
#	15927
#	31452
#	53350
#	74357
#	95370
#	111665
#	130465
#	151922
#	167525
#	183425
#	200985
#	223570
#	240297
#	259527
#	279737
#
# Disc length: 3977 seconds
#
# Revision: 3
# Processed by: cddbd v1.5.2PL0 Copyright (c) Steve Scherf et al.
# Submitted via: EasyCDDAExtractor 10.0.3.1
#
DISCID=dc0f8710
DTITLE=NATALIA KUKULSKA - tobie
DYEAR=1900
DGENRE=Pop
TTITLE0=Jesli ona
TTITLE1=Niepotrzebny
TTITLE2=Cicho cieplo
TTITLE3=Od kiedy nie ma Cie
TTITLE4=Byles jak ja
TTITLE5=Za kogo ty sie masz
TTITLE6=Przychodza
TTITLE7=Zapomniec Ciebie
TTITLE8=Nie wiem jak
TTITLE9=Choc raz
TTITLE10=Kogos przypomni
TTITLE11=Wiem gdzie to jest
TTITLE12=Nie powiem Tobie nic wiecej
TTITLE13=Nie obudzmy sie
TTITLE14=Tobie
TTITLE15=Bonus - Z glebi serc
EXTD=
EXTT0=
EXTT1=
EXTT2=
EXTT3=
EXTT4=
EXTT5=
EXTT6=
EXTT7=
EXTT8=
EXTT9=
EXTT10=
EXTT11=
EXTT12=
EXTT13=
EXTT14=
EXTT15=
PLAYORDER=
